<svg width="25" height="33" viewBox="0 0 25 33" fill="none" xmlns="http://www.w3.org/2000/svg">
<path d="M23.2522 21.1614V21.1342C23.2522 17.5189 22.1227 14.6314 18.8392 10.5635C16.0616 7.12419 15.39 4.55213 15.7185 2.68693C15.7496 2.47195 15.7969 2.26011 15.8597 2.05317C15.7288 2.10353 15.6 2.15991 15.4735 2.22222C14.6809 2.61291 14.0171 3.22065 13.5597 3.97349L13.5319 4.01916L13.5014 4.06304C13.1325 4.59397 12.9458 5.26921 12.9094 6.16445C12.872 7.08471 12.9952 8.08346 13.1413 9.23091C13.1459 9.26724 13.1506 9.30377 13.1553 9.34048C13.2875 10.3765 13.4384 11.5592 13.3667 12.6039C13.2915 13.7012 12.9483 15.001 11.7696 15.8859C11.1835 16.3796 10.4644 16.6901 9.7022 16.7782C8.91077 16.8698 8.11001 16.7172 7.40766 16.3408L7.34102 16.305L7.27772 16.2637C6.28798 15.617 5.64945 14.5112 5.33467 13.2897C5.23389 12.8987 5.16219 12.4826 5.12181 12.044C4.36527 13.0353 3.72175 14.1112 3.20533 15.2523C2.28448 17.2869 1.78689 19.4864 1.74241 21.7178C1.74634 24.6058 2.79292 26.9172 4.53468 28.5186C5.3376 29.2567 6.31586 29.8687 7.45499 30.3158C7.30364 29.0231 7.55959 27.6647 7.94621 26.4859C8.52085 24.7339 9.51215 22.979 10.6547 21.6361L10.7007 21.582L10.751 21.5318C10.9807 21.3026 11.2532 21.121 11.5528 20.9972M23.2522 21.1614L11.5528 20.9972M23.2522 21.1614L23.253 21.1885C23.2926 22.456 23.0765 23.7187 22.6175 24.9016C22.1628 26.0736 21.4787 27.1438 20.605 28.0499C19.702 28.9013 18.6717 29.59 17.5599 30.0972M23.2522 21.1614L17.5599 30.0972M11.5528 20.9972C11.8524 20.8734 12.1733 20.8097 12.4973 20.8097C12.8212 20.8097 13.1422 20.8734 13.4418 20.9972L11.5528 20.9972ZM18.1083 0.674869L18.1232 0.682298M18.1083 0.674869L18.111 0.659781L18.1232 0.682298M18.1083 0.674869L18.1232 0.682298M18.1083 0.674869L18.1232 0.682298M17.5599 30.0972C17.6639 28.8674 17.4148 27.5911 17.0479 26.4756C16.4728 24.7273 15.4812 22.9776 14.3399 21.6361L14.2939 21.582L14.2436 21.5318C14.0139 21.3026 13.7414 21.121 13.4418 20.9972L17.5599 30.0972ZM6.39017 9.06939L6.38885 9.06998L6.39017 9.06939Z" stroke="black" stroke-width="3.4848"/>
</svg>
