<svg width="24" height="25" viewBox="0 0 24 25" fill="none" xmlns="http://www.w3.org/2000/svg">
<path id="Vector" d="M21.45 23.3H22.8M17.4 23.3H14.7V19.25M18.75 19.25H22.8V15.2H21.45M14.7 15.2H17.4M1.2 19.2496C1.2 17.9917 1.2 17.3626 1.40552 16.8665C1.67956 16.2048 2.20483 15.6795 2.86641 15.4055C3.36259 15.2 3.99161 15.2 5.24965 15.2C6.5077 15.2 7.13741 15.2 7.63358 15.4055C8.29517 15.6795 8.8203 16.2048 9.09434 16.8665C9.29986 17.3626 9.29986 17.9919 9.29986 19.25C9.29986 20.5081 9.29986 21.137 9.09434 21.6333C8.8203 22.2948 8.29517 22.8204 7.63358 23.0944C7.13741 23.2999 6.50768 23.2999 5.24965 23.2999C3.99161 23.2999 3.36259 23.2999 2.86641 23.0944C2.20483 22.8204 1.67956 22.2952 1.40552 21.6336C1.2 21.1374 1.2 20.5077 1.2 19.2496ZM14.7 5.74966C14.7 4.49162 14.7 3.8626 14.9055 3.36642C15.1795 2.70484 15.7048 2.17957 16.3664 1.90554C16.8626 1.70001 17.4917 1.70001 18.7496 1.70001C20.0077 1.70001 20.6374 1.70001 21.1336 1.90554C21.7952 2.17957 22.3203 2.70484 22.5944 3.36642C22.7999 3.8626 22.7999 4.49197 22.7999 5.75001C22.7999 7.00805 22.7999 7.63708 22.5944 8.13326C22.3203 8.79483 21.7952 9.32032 21.1336 9.59435C20.6374 9.79988 20.0077 9.79988 18.7496 9.79988C17.4917 9.79988 16.8626 9.79988 16.3664 9.59435C15.7048 9.32032 15.1795 8.79518 14.9055 8.1336C14.7 7.63742 14.7 7.00771 14.7 5.74966ZM1.2 5.74966C1.2 4.49162 1.2 3.8626 1.40552 3.36642C1.67956 2.70484 2.20483 2.17957 2.86641 1.90554C3.36259 1.70001 3.99161 1.70001 5.24965 1.70001C6.5077 1.70001 7.13741 1.70001 7.63358 1.90554C8.29517 2.17957 8.8203 2.70484 9.09434 3.36642C9.29986 3.8626 9.29986 4.49197 9.29986 5.75001C9.29986 7.00805 9.29986 7.63708 9.09434 8.13326C8.8203 8.79483 8.29517 9.32032 7.63358 9.59435C7.13741 9.79988 6.50768 9.79988 5.24965 9.79988C3.99161 9.79988 3.36259 9.79988 2.86641 9.59435C2.20483 9.32032 1.67956 8.79518 1.40552 8.1336C1.2 7.63742 1.2 7.00771 1.2 5.74966Z" stroke="white" stroke-width="2.4" stroke-linecap="round" stroke-linejoin="round"/>
</svg>
